<?xml version="1.0" encoding="UTF-8" standalone="no"?>
<!-- Created with Inkscape (http://www.inkscape.org/) -->

<svg
   xmlns:dc="http://purl.org/dc/elements/1.1/"
   xmlns:cc="http://creativecommons.org/ns#"
   xmlns:rdf="http://www.w3.org/1999/02/22-rdf-syntax-ns#"
   xmlns:svg="http://www.w3.org/2000/svg"
   xmlns="http://www.w3.org/2000/svg"
   xmlns:sodipodi="http://sodipodi.sourceforge.net/DTD/sodipodi-0.dtd"
   xmlns:inkscape="http://www.inkscape.org/namespaces/inkscape"
   width="744.09448819"
   height="1052.3622047"
   id="svg2"
   version="1.1"
   inkscape:version="0.48.5 r10040"
   sodipodi:docname="drawing.svg">
  <defs
     id="defs4" />
  <sodipodi:namedview
     id="base"
     pagecolor="#ffffff"
     bordercolor="#666666"
     borderopacity="1.0"
     inkscape:pageopacity="0.0"
     inkscape:pageshadow="2"
     inkscape:zoom="1.4"
     inkscape:cx="-161.11945"
     inkscape:cy="458.6216"
     inkscape:document-units="px"
     inkscape:current-layer="layer1"
     showgrid="false"
     inkscape:window-width="1366"
     inkscape:window-height="746"
     inkscape:window-x="0"
     inkscape:window-y="0"
     inkscape:window-maximized="1" />
  <metadata
     id="metadata7">
    <rdf:RDF>
      <cc:Work
         rdf:about="">
        <dc:format>image/svg+xml</dc:format>
        <dc:type
           rdf:resource="http://purl.org/dc/dcmitype/StillImage" />
        <dc:title></dc:title>
      </cc:Work>
    </rdf:RDF>
  </metadata>
  <g
     inkscape:label="Layer 1"
     inkscape:groupmode="layer"
     id="layer1">
    <rect
       style="fill:#000000;fill-opacity:1;stroke:none"
       id="rect3183"
       width="150"
       height="150"
       x="-472.06998"
       y="487.12741"
       inkscape:export-filename="/home/turupawn/Projects/StickFighterSite/img/download/osx.png"
       inkscape:export-xdpi="69.230003"
       inkscape:export-ydpi="69.230003" />
    <rect
       y="487.12741"
       x="-262.06998"
       height="150"
       width="150"
       id="rect3185"
       style="fill:#000000;fill-opacity:1;stroke:none"
       inkscape:export-filename="/home/turupawn/Projects/StickFighterSite/img/download/gnu_linux.png"
       inkscape:export-xdpi="69.230003"
       inkscape:export-ydpi="69.230003" />
    <rect
       style="fill:#000000;fill-opacity:1;stroke:none"
       id="rect3187"
       width="150"
       height="150"
       x="-17.784262"
       y="487.12741"
       inkscape:export-filename="/home/turupawn/Projects/StickFighterSite/img/download/winnie.png"
       inkscape:export-xdpi="69.230003"
       inkscape:export-ydpi="69.230003" />
    <path
       style="fill:#ffffff;fill-rule:nonzero;stroke:none"
       d="m -372.97373,501.58106 c -6.09075,0.24448 -13.4631,4.058 -17.83632,9.17907 -3.91513,4.52596 -7.34862,11.77912 -6.41794,18.73207 6.79268,0.52661 13.72928,-3.45678 17.95805,-8.57032 4.22804,-5.12106 7.08233,-12.24337 6.29621,-19.34082 z m -2.3176,29.18517 c -8.6032,0.11604 -16.57571,5.64397 -20.98008,5.64397 -4.77765,0 -12.16483,-5.40963 -19.98007,-5.25699 -10.28791,0.15263 -19.75774,5.97538 -25.0543,15.17959 -10.67722,18.5229 -2.72459,45.97456 7.67023,61.00971 5.09055,7.34963 11.15125,15.62836 19.11901,15.32306 7.67784,-0.3053 10.57564,-4.957 19.84092,-4.957 9.26528,0 11.87582,4.95846 19.98867,4.81346 8.25024,-0.16021 13.48837,-7.51131 18.54073,-14.88382 5.83088,-8.53267 8.24163,-16.78832 8.37904,-17.22333 -0.1832,-0.076 -16.09003,-6.17329 -16.25794,-24.49776 -0.13739,-15.32509 12.51566,-22.68243 13.08808,-23.04114 -7.12071,-10.41771 -18.2007,-11.84619 -22.15413,-12.01409 -0.73638,-0.0745 -1.47112,-0.1055 -2.20016,-0.0957 z"
       id="path188"
       inkscape:connector-curvature="0" />
    <path
       style="fill:#ffffff"
       d="m -187.42125,499.98951 c -1.17392,1e-4 -2.48039,0.0706 -3.76358,0.21546 -1.67178,0.18869 -3.32625,0.53711 -4.67606,0.98353 -2.11547,0.69967 -3.68787,1.86614 -5.39907,4.00719 -0.83715,1.04739 -1.40789,1.92365 -1.88278,2.89251 -0.77225,1.57552 -1.28609,3.27708 -1.60736,5.32232 -0.38381,2.44339 -0.42833,5.97183 -0.13865,11.13546 0.14006,2.49693 0.26586,3.96309 0.6782,7.94132 0.47207,4.5547 0.4919,5.71713 0.13113,7.5067 -0.30316,1.50348 -0.87242,2.89849 -1.79288,4.39311 -0.93903,1.52479 -1.52348,2.28089 -4.74525,6.14099 -1.31557,1.57612 -2.65181,3.21528 -2.97128,3.64188 -1.0943,1.46159 -2.09745,3.2125 -2.69954,4.71346 -0.35152,0.87634 -0.477,1.28213 -0.88237,2.86068 -1.51361,5.89389 -2.2455,7.68428 -5.59581,13.70201 -0.35096,0.63044 -0.79889,1.45316 -0.99664,1.82844 -0.86833,1.6478 -1.58956,3.55489 -1.78347,4.72095 -0.30817,1.85276 -0.28537,2.82314 0.0824,3.55009 l 0.14052,0.2791 -0.29226,0.43648 c -0.20503,0.30638 -0.35592,0.62427 -0.50389,1.06037 -0.25252,0.74418 -0.72013,1.95966 -0.9442,2.45225 -0.15927,0.3502 -0.16805,0.3578 -0.62013,0.58078 -0.85203,0.42034 -0.68776,0.40176 -3.52947,0.40278 -2.77016,7.8e-4 -3.00866,0.0211 -3.56694,0.30159 -0.46901,0.2356 -0.91842,0.57999 -1.3582,1.04164 -1.48548,1.55954 -1.86262,3.46896 -1.36947,6.92594 0.0899,0.63046 0.26272,1.82156 0.38404,2.64711 0.40677,2.76796 0.42614,3.18673 0.19108,4.20014 -0.19382,0.83597 -0.99765,2.49122 -1.84154,3.79549 -0.64316,0.99421 -0.72091,1.15128 -0.89358,1.8022 -0.11897,0.44848 -0.14563,0.67224 -0.14985,1.25521 -0.008,0.69073 0,0.7184 0.17046,1.0791 0.44025,0.92947 1.40468,1.58626 3.26346,2.22183 1.81138,0.61933 2.53512,0.78721 5.78126,1.34134 4.19819,0.71668 7.99861,1.78958 15.54733,4.38559 2.66686,0.91716 4.98792,1.51212 6.63744,1.70109 0.83613,0.0958 2.45093,0.0416 3.18853,-0.10688 1.89485,-0.38162 3.54947,-1.33963 5.04506,-2.91876 0.47746,-0.50413 0.48421,-0.50836 1.18961,-0.80924 2.94548,-1.25662 6.62693,-1.8432 11.60003,-1.84531 2.18946,0 3.85639,0.0784 7.01396,0.3316 2.96038,0.23734 8.12009,0.79131 8.15121,0.87485 0.0565,0.1519 0.73166,1.22198 0.96099,1.5231 0.85595,1.1233 2.24189,2.16548 3.70001,2.782 1.19572,0.50553 1.73935,0.64465 3.18666,0.81677 0.71715,0.0853 1.55407,0.15776 1.8602,0.16114 1.07078,0.0117 2.36354,-0.22965 3.3572,-0.62576 1.23483,-0.49229 3.07285,-1.73143 4.62355,-3.1173 1.18192,-1.05636 5.2703,-4.53983 6.22149,-5.30173 1.12118,-0.89805 2.22928,-1.70839 3.3365,-2.4373 1.23397,-0.81237 1.44206,-0.92696 3.30281,-1.82092 0.93065,-0.44714 2.01962,-0.97706 2.42044,-1.1784 0.40083,-0.20128 0.90385,-0.4292 1.11844,-0.50577 0.8442,-0.30136 1.54176,-0.73236 2.34175,-1.45006 1.03913,-0.93221 1.47121,-1.91099 1.47999,-3.34395 0,-0.59723 -0.0113,-0.69521 -0.16302,-1.12409 -0.3048,-0.85909 -0.92869,-1.63039 -1.77226,-2.19 -0.60884,-0.40389 -1.65438,-0.97267 -2.38666,-1.29636 -0.78714,-0.34791 -1.51793,-0.79835 -2.23312,-1.37693 -0.32291,-0.26131 -0.74638,-0.59222 -0.94045,-0.73628 -0.49361,-0.36641 -0.9283,-0.90948 -1.25144,-1.56236 l -0.26977,-0.54707 0,0 c 0,-0.009 -0.008,-0.0203 -0.008,-0.0298 l -0.19296,-1.47623 c -0.29188,-2.23602 -0.82171,-4.24835 -1.34887,-5.1181 -0.36955,-0.60985 -0.90345,-1.01319 -1.43877,-1.08663 -0.21945,-0.0298 -0.24485,-0.0462 -0.21546,-0.14797 0.91646,-3.16902 1.28154,-6.27385 1.12597,-9.58614 -0.23099,-4.91687 -1.18585,-9.14059 -2.92441,-12.93393 -0.17149,-0.37425 -0.48264,-1.11095 -0.69128,-1.63734 -0.50185,-1.26641 -1.68957,-3.65189 -2.45979,-4.94202 -1.37779,-2.30788 -2.9563,-4.48769 -4.72652,-6.52315 -0.35247,-0.40529 -0.89696,-1.1046 -1.20834,-1.55492 -0.3114,-0.45032 -1.0117,-1.44507 -1.55681,-2.21061 -1.15763,-1.62565 -3.26205,-4.77308 -3.79549,-5.67639 -0.3436,-0.58182 -1.28153,-2.34368 -1.93332,-3.63064 -0.33655,-0.6645 -0.65688,-1.59707 -0.98167,-2.86629 -0.25912,-1.0124 -0.37911,-1.70224 -0.60703,-3.46579 -0.0776,-0.60043 -0.19994,-1.36144 -0.27158,-1.69167 -0.0713,-0.33023 -0.14578,-0.7846 -0.16491,-1.00976 -0.0188,-0.22517 -0.0948,-0.92616 -0.1667,-1.55679 -0.0721,-0.63062 -0.16655,-1.77309 -0.2117,-2.53845 -0.0454,-0.76536 -0.10599,-1.55086 -0.13489,-1.746 -0.029,-0.19515 -0.14006,-1.26596 -0.24727,-2.37922 -0.10734,-1.11326 -0.24282,-2.34174 -0.30168,-2.72952 -0.0588,-0.38781 -0.15808,-1.03536 -0.21914,-1.44066 -0.33334,-2.21372 -0.72005,-3.786 -1.64294,-6.67116 -0.29768,-0.93051 -0.36846,-1.08872 -0.79623,-1.80033 -1.45609,-2.42211 -2.25044,-3.42743 -3.70183,-4.68724 -1.24432,-1.08005 -2.14706,-1.66391 -3.95663,-2.55718 -1.66763,-0.82322 -4.06815,-1.53089 -5.21176,-1.53431 -0.15009,0 -0.3969,-0.0383 -0.54707,-0.0843 -0.74607,-0.2288 -2.03686,-0.34483 -3.54633,-0.3447 z m 4.72096,18.65903 c 1.26031,7.9e-4 2.11674,0.23583 2.99369,0.82242 0.85251,0.57024 1.2752,1.15957 1.64859,2.30239 0.37824,1.15729 0.55679,3.01718 0.444,4.64229 -0.0752,1.08368 -0.13151,1.48392 -0.48335,3.507 -0.14092,0.81056 -0.26922,1.48991 -0.28662,1.50995 -0.0173,0.02 -0.21695,-0.0717 -0.44212,-0.20421 -0.54089,-0.31809 -0.8884,-0.44541 -1.39003,-0.50769 -0.22784,-0.0282 -0.47943,-0.0944 -0.55827,-0.14611 l -0.12368,-0.0806 c 0.008,-0.0102 0.0188,-0.0219 0.0352,-0.0356 l 0.23976,-0.0974 c 1.35474,-0.5512 2.01578,-1.73272 2.01578,-3.60628 0,-0.82735 -0.0745,-1.20124 -0.47583,-2.39982 -0.17149,-0.51191 -0.25559,-0.747 -0.34846,-0.91235 l -0.0173,-0.0524 -0.0376,-0.0356 c -0.0502,-0.0731 -0.107,-0.13961 -0.18363,-0.22105 -0.65649,-0.69887 -1.47349,-1.22986 -2.10945,-1.37134 -0.43539,-0.0968 -1.19869,-0.0457 -1.59426,0.10677 -0.3933,0.15165 -1.01044,0.56239 -1.38438,0.92171 -0.31515,0.30281 -0.71087,1.04509 -0.86176,1.61862 -0.21192,0.80556 -0.21701,3.36744 -0.008,3.9491 0.0619,0.17285 0.0681,0.23018 0.0188,0.20797 -0.0376,-0.0168 -0.23795,-0.0998 -0.4459,-0.18361 l -0.37839,-0.15174 -0.20606,-0.44774 c -0.65241,-1.41042 -1.04571,-3.4554 -0.95729,-4.98324 0.0533,-0.91491 0.25581,-1.49785 0.86732,-2.48411 0.28129,-0.45361 0.33889,-0.51048 0.73439,-0.74936 1.07855,-0.6514 2.03678,-0.9188 3.29348,-0.91795 z m -15.54725,0.82617 c 0.55663,-0.005 0.88354,0.0731 1.35631,0.29973 0.68157,0.32665 1.58533,1.34402 2.0233,2.27994 0.36398,0.77801 0.51016,1.97045 0.45522,3.69245 -0.0424,1.33743 -0.0603,1.45502 -0.24728,1.65046 -0.0876,0.0916 -0.15926,0.2254 -0.15926,0.296 0,0.0777 -0.0313,0.12739 -0.0806,0.12739 -0.0659,0 -0.0818,-0.0839 -0.0824,-0.42339 0,-0.93905 -0.17932,-1.89073 -0.61259,-3.27845 l -0.22674,-0.72686 -0.49269,-0.46835 c -0.75766,-0.72104 -1.33757,-0.93431 -2.11876,-0.78122 -0.65672,0.12869 -1.2806,0.53445 -1.58306,1.03224 -0.0659,0.10825 -0.2095,0.3089 -0.32033,0.44401 -0.51125,0.62282 -0.61926,1.07835 -0.61635,2.619 0,0.98437 0.0227,1.26193 0.11991,1.71977 0.21789,1.02294 0.72021,1.78891 1.50241,2.2893 0.17502,0.11197 0.30974,0.21167 0.29979,0.22105 -0.0102,0.009 -0.23701,0.1409 -0.50396,0.29413 -0.26703,0.15323 -0.50561,0.27913 -0.53014,0.27913 -0.0851,0 -0.89562,-1.03764 -1.18216,-1.5137 -0.59841,-0.99427 -0.82743,-1.82505 -0.8692,-3.15292 -0.0619,-1.96084 0.14397,-3.11535 0.83738,-4.71159 0.40121,-0.92361 0.68987,-1.31652 1.26453,-1.71416 0.46047,-0.31862 0.8525,-0.43888 1.51181,-0.46647 0.0899,-0.003 0.17526,-0.007 0.25481,-0.008 z m 0.0446,3.68871 c 0.0424,-0.003 0.0948,0.008 0.178,0.0262 0.84091,0.18652 1.40601,1.13541 1.54559,2.5984 l 0.0376,0.39527 -0.29416,0 -0.29414,0 -0.088,-0.36905 c -0.1114,-0.46379 -0.32119,-1.30764 -0.36907,-1.48748 -0.0251,-0.094 -0.0432,-0.12227 -0.24916,-0.13676 -0.12008,-0.0155 -0.30059,-0.0262 -0.4908,-0.0262 l -0.3204,0 -0.14611,-0.003 0,-0.32597 c 0,-0.15501 0.008,-0.24397 0.0267,-0.28852 0.008,-0.0102 0.0113,-0.0166 0.0165,-0.0225 0.0102,-0.0102 0.0211,-0.0149 0.0353,-0.0149 0.0432,0 0.14163,-0.0819 0.21914,-0.1836 0.085,-0.11141 0.12297,-0.15607 0.19297,-0.16111 z m 16.77066,0.0168 c 0.26694,0 1.12102,0.75658 1.2777,1.13153 0.0486,0.11678 0.10271,0.47602 0.12547,0.83366 0.0259,0.40863 0.0721,0.69032 0.13114,0.80369 0.0494,0.0959 0.0899,0.18769 0.0899,0.2042 0,0.0165 -0.10757,0.0299 -0.23796,0.0299 -0.23184,0 -0.23747,-0.006 -0.30347,-0.23229 -0.24735,-0.85054 -0.81152,-1.61795 -1.28326,-1.74414 -0.13693,-0.0366 -0.24917,-0.0834 -0.24917,-0.10486 0,-0.0215 -0.0864,-0.15134 -0.19108,-0.28851 l -0.18552,-0.24354 c 0,-0.002 0,-0.005 0,-0.008 0,-7.8e-4 0,-10e-4 0,-10e-4 l 0.18544,-0.0768 c 0.10643,-0.0444 0.26304,-0.13023 0.34847,-0.19107 0.0854,-0.0608 0.21506,-0.11243 0.2885,-0.11243 z m -10.13878,4.91953 c 0.15072,-0.003 0.31468,7.9e-4 0.50765,0.009 1.5738,0.0715 3.89894,0.75341 6.87727,2.0139 0.4897,0.20727 1.36297,0.53145 1.93896,0.72125 2.6642,0.87794 4.48122,1.77755 5.23426,2.5909 0.16389,0.177 0.35639,0.35325 0.42904,0.39155 0.19758,0.10418 0.21263,0.14899 0.2135,0.6613 0,0.83712 -0.23192,1.3509 -1.01538,2.23872 -0.41829,0.47404 -0.51713,0.54629 -3.39271,2.47849 -3.78105,2.54062 -4.98854,3.26813 -6.61682,3.98284 -0.76731,0.33679 -2.03059,0.7575 -2.70142,0.9011 -0.69442,0.14865 -2.34544,0.19575 -2.97496,0.0843 -1.269,-0.22467 -2.45696,-0.74485 -3.5051,-1.53619 -0.24924,-0.18812 -1.19062,-1.08822 -2.09258,-1.99891 -1.55116,-1.56614 -1.65525,-1.68332 -1.924,-2.17687 -0.15629,-0.28699 -0.28475,-0.53856 -0.28475,-0.55829 0,-0.0198 0.22409,0.12646 0.49832,0.32411 2.41472,1.74045 5.27047,2.68639 7.74459,2.56467 2.7998,-0.13773 6.04186,-1.36515 9.9346,-3.76178 1.02307,-0.6298 2.40454,-1.56691 2.43729,-1.65233 0.0565,-0.14645 -0.0392,-0.35882 -0.20228,-0.45149 -0.15049,-0.0856 -0.16005,-0.1144 -0.16114,-0.41964 0,-0.18012 -0.0251,-0.36337 -0.0541,-0.40839 -0.0675,-0.10542 -0.0977,-0.0884 -1.10528,0.65194 -3.85183,2.83009 -7.2008,4.44192 -10.16691,4.89144 -0.88675,0.13436 -2.18131,0.121 -2.94501,-0.0301 -1.76262,-0.34846 -3.51082,-1.23643 -5.46844,-2.77824 -0.26845,-0.21143 -0.44134,-0.39997 -0.5564,-0.60697 -0.0917,-0.16512 -0.26586,-0.43272 -0.38781,-0.59576 -0.26351,-0.35235 -0.28671,-0.58221 -0.10858,-1.11092 0.37025,-1.09906 1.50037,-2.31649 3.37021,-3.6325 1.19345,-0.83992 3.76845,-2.11726 5.06755,-2.5141 0.62655,-0.19139 0.95839,-0.26438 1.41071,-0.27352 z m 0.75869,0.58263 c -0.10293,0.003 -0.17839,0.0377 -0.22479,0.10113 -0.0986,0.13476 -0.0851,0.55597 0.0267,0.79805 0.10609,0.23084 0.54103,0.82034 0.83926,1.13903 0.19194,0.20514 0.20965,0.21169 0.56196,0.21169 0.38122,0 0.647,-0.0946 0.70633,-0.24916 0.0251,-0.0658 0.0353,-0.16232 0.0321,-0.26602 0,-0.005 0,-0.0102 0,-0.0149 0,-0.0113 0,-0.0231 0,-0.0356 0,-0.003 0,-0.007 0,-0.009 -0.009,-0.1122 -0.0306,-0.22695 -0.0674,-0.31474 -0.0408,-0.0972 -0.21546,-0.34391 -0.38781,-0.54704 -0.25386,-0.29926 -0.39791,-0.41155 -0.75681,-0.59199 -0.3077,-0.15472 -0.55349,-0.22809 -0.72507,-0.22106 z m -2.16187,0.0188 c -0.107,0.002 -0.23278,0.0455 -0.38593,0.13114 -0.13599,0.076 -0.42387,0.17261 -0.63885,0.21357 -0.42434,0.0809 -0.48335,0.12554 -0.6688,0.52079 -0.15824,0.33731 -0.20079,1.03503 -0.0753,1.22708 0.0833,0.12719 0.12133,0.13863 0.50953,0.13863 l 0.41971,0 0.35967,-0.36907 c 0.90354,-0.92632 1.09281,-1.3687 0.74749,-1.746 -0.0737,-0.0802 -0.16099,-0.11866 -0.2679,-0.11614 z m 15.00779,10.25496 c 0.081,0 0.9649,2.00405 1.84335,4.17767 0.32236,0.79752 0.70516,1.62697 0.97978,2.12631 0.24775,0.45031 0.85486,1.61708 1.35076,2.59278 0.49589,0.9757 1.04116,2.01316 1.21022,2.30427 0.29705,0.51162 0.30724,0.5417 0.30724,0.92734 0,1.22167 0.6064,4.20978 0.96669,4.76216 0.0776,0.11873 0.47716,0.85542 0.88794,1.63735 0.62756,1.19456 0.96647,1.75282 2.12629,3.49388 0.75924,1.13966 1.46738,2.25781 1.57185,2.48413 0.71276,1.54422 1.24455,3.03626 1.538,4.31442 1.04805,4.56405 1.06844,4.78612 1.06788,10.94438 0,4.44894 -0.018,5.01938 -0.22298,7.15076 -0.11733,1.21932 -0.0817,1.15606 -0.51329,0.89546 -0.69559,-0.41995 -1.63926,-0.63462 -2.37921,-0.54143 -0.93528,0.11788 -1.60823,0.57804 -2.32679,1.58682 -1.04931,1.47317 -1.51228,3.61592 -1.51557,7.02517 0,0.76394 0.0102,0.86223 0.13301,1.15402 0.19751,0.46925 0.24782,0.87328 0.28482,2.29677 l 0.0337,1.28326 -0.59387,0.77186 c -4.85742,6.30763 -10.85647,9.61592 -18.4436,10.17067 -0.69246,0.051 -3.60182,0.0659 -4.06715,0.0203 -0.10508,-0.0102 -0.47338,-0.0446 -0.81864,-0.0768 -1.94924,-0.17956 -3.64563,-0.61989 -5.04881,-1.30946 -1.31251,-0.64503 -2.22506,-1.44393 -2.74077,-2.4017 -0.69003,-1.28162 -1.05034,-2.01742 -1.0229,-2.08883 0.0189,-0.0494 0.1515,-0.0888 0.35967,-0.11062 0.43428,-0.0454 1.00307,-0.24782 1.45938,-0.51886 0.53038,-0.31515 1.96045,-1.66849 2.30053,-2.17692 1.03277,-1.54403 0.49134,-2.99495 -2.20122,-5.90116 -0.77781,-0.83958 -2.25805,-2.25836 -3.64564,-3.49201 -0.63916,-0.56831 -1.0533,-0.86309 -2.97495,-2.11697 -3.46387,-2.26015 -5.78047,-4.06291 -7.50107,-5.84128 -1.01679,-1.05088 -1.40468,-1.64066 -1.82282,-2.76507 -0.45114,-1.21345 -0.60711,-2.25159 -0.56384,-3.77116 0.0697,-2.45311 0.83134,-5.24873 2.38666,-8.76748 0.23222,-0.52539 0.62513,-1.42291 0.87303,-1.99331 1.35241,-3.11186 2.38722,-5.05238 3.329,-6.24215 l 0.20981,-0.26416 c 0.0149,-10e-4 0.0352,10e-4 0.0603,0.0113 l 0.14053,0.13488 c 0.12148,0.11779 0.25237,0.18353 0.40654,0.20421 0.40144,0.0538 0.3911,0.16136 -0.0675,0.73812 -1.32887,1.67144 -2.52232,3.82054 -3.73552,6.72736 -1.56723,3.75493 -2.28547,6.46444 -2.47663,9.35011 -0.10859,1.63988 0.0768,2.78782 0.62944,3.91353 0.35128,0.71535 0.68235,1.16538 1.27582,1.73103 0.49378,0.47057 0.85047,0.72766 0.93668,0.67436 0.0721,-0.0446 0.0737,-0.33961 0,-0.76622 -0.0298,-0.18011 -0.0807,-0.76409 -0.11242,-1.29636 -0.0133,-0.21898 -0.0203,-0.44102 -0.0243,-0.6669 0,-0.0432 0,-0.0861 0,-0.12925 0,-0.076 0,-0.15346 0,-0.23042 8e-5,-0.0353 0,-0.0713 0,-0.10689 0.0267,-3.59692 1.11569,-7.98382 3.12105,-12.51426 0.22274,-0.5032 1.43399,-2.95827 2.69209,-5.4572 1.17119,-2.32629 1.93506,-3.88163 2.22936,-4.53549 l 0.0753,-0.14988 0.008,-0.0356 0,-10e-4 c 0.0306,-0.0732 0.0494,-0.12348 0.0564,-0.14987 0.0446,-0.18014 0.13364,-0.6345 0.19861,-1.00976 0.20621,-1.19177 0.27707,-1.47925 0.60131,-2.45602 0.75344,-2.26947 1.21727,-3.3277 2.66027,-6.07917 0.7405,-1.41202 1.44982,-2.80293 1.57553,-3.08922 0.44699,-1.0182 0.89437,-2.6608 0.89547,-3.28594 0,-0.14083 0.0235,-0.26984 0.051,-0.28663 0.0713,-0.0438 2.09423,1.65437 2.50666,2.10383 1.07023,1.16635 2.56017,1.69468 5.00382,1.77598 2.24518,0.0747 4.17021,-0.38381 6.65993,-1.58677 1.98224,-0.95781 3.45752,-1.91314 5.94992,-3.85358 1.00213,-0.78025 1.84271,-1.41817 1.86772,-1.41817 z m 14.13098,19.46458 c 0.0432,-0.002 0.0956,0.008 0.17612,0.0262 0.71182,0.15995 1.63863,0.58818 2.31737,1.07158 0.90369,0.64359 2.02041,1.90254 2.8476,3.20913 0.48602,0.76774 1.08975,2.05068 1.39001,2.95434 1.33116,4.00582 1.10175,10.22427 -0.57324,15.6129 -0.10407,0.33491 -0.17463,0.6445 -0.15738,0.68941 0.0424,0.11062 0.14398,0.13355 1.06036,0.22854 0.43531,0.0454 1.02619,0.1061 1.31133,0.13677 0.28521,0.0306 0.62003,0.0564 0.74379,0.0564 0.33052,-8e-4 1.42944,0.1975 2.14878,0.38773 1.7207,0.45512 2.90286,1.08411 3.87606,2.06452 1.00778,1.01538 1.50163,2.01029 1.46127,2.93561 -0.0157,0.35709 -0.0219,0.36963 -0.16303,0.38593 -0.17274,0.0195 -0.27651,-0.11061 -0.39158,-0.49275 -0.0416,-0.13826 -0.18488,-0.39432 -0.31844,-0.56949 -0.13355,-0.17518 -0.46078,-0.63666 -0.72874,-1.0247 -0.74044,-1.07229 -1.169,-1.37929 -2.78765,-2.0027 -1.8439,-0.71017 -2.84877,-0.90141 -5.01502,-0.95729 -1.45108,-0.0376 -1.84226,0.0141 -2.67337,0.35591 -1.1309,0.4654 -1.33366,0.61267 -2.46723,1.79475 -0.56933,0.59363 -1.11844,1.19988 -1.21962,1.3488 -0.24987,0.36774 -0.54198,0.68571 -0.63133,0.68571 -0.0879,0 -0.18544,-0.16819 -0.18544,-0.31852 0,-0.23105 0.74615,-1.42144 1.39754,-2.22747 0.75022,-0.92822 1.61519,-1.6478 2.57218,-2.13938 l 0.54699,-0.27918 0.2548,-0.72499 c 0.78237,-2.21534 1.32842,-4.43705 1.62421,-6.61868 0.0948,-0.6993 0.11913,-1.04194 0.12368,-2.18625 0.0173,-0.52916 0.0157,-1.05324 0,-1.57178 -0.0165,-1.44844 -0.0863,-2.01908 -0.34658,-3.31216 -0.27706,-1.3763 -0.82398,-3.06198 -1.3245,-4.08588 -0.93017,-1.90284 -2.74186,-3.66027 -4.74909,-4.60667 -0.42685,-0.20126 -0.47772,-0.24114 -0.47772,-0.37282 0,-0.0864 0.0643,-0.21558 0.15551,-0.31285 0.0908,-0.0972 0.13395,-0.13657 0.20604,-0.1405 z m -57.04116,27.16793 c 0.13771,0 0.28608,0.0494 0.63886,0.16678 0.72836,0.24157 1.52952,0.63745 2.15443,1.06593 0.61102,0.41901 1.65806,1.36556 2.23868,2.02519 0.71103,0.80775 1.99485,2.78395 3.12293,4.80333 1.60155,2.8668 1.73496,3.06697 4.52612,6.79106 2.43595,3.25014 3.17082,4.2768 3.9154,5.46844 1.82658,2.92331 2.95873,5.47605 3.42649,7.73151 0.36579,1.76411 0.31868,4.13368 -0.0974,4.93642 -0.13512,0.2606 -0.90744,1.10418 -1.42567,1.5568 -1.4615,1.27645 -3.00999,1.97738 -4.79025,2.1694 -0.52018,0.0564 -1.11084,0.0627 -1.43508,0.0165 -1.11475,-0.15699 -3.86141,-1.00565 -7.55915,-2.33618 -6.81943,-2.45375 -9.90764,-3.29192 -15.09204,-4.09332 -3.05679,-0.47253 -5.11654,-1.11883 -6.23467,-1.95958 -0.37479,-0.28185 -0.59393,-0.53547 -0.7793,-0.9011 -0.10576,-0.20857 -0.11749,-0.29352 -0.0862,-0.60139 0.0786,-0.7728 0.58539,-1.98874 1.50061,-3.60064 0.75218,-1.32481 1.12878,-2.25326 1.38256,-3.41521 0.0815,-0.37275 0.10779,-0.61792 0.11616,-1.21209 0.0141,-0.2534 0.0141,-0.51666 0,-0.79803 -0.008,-1.05034 -0.0533,-1.37231 -0.46086,-3.44891 -0.43476,-2.21353 -0.5263,-2.99807 -0.43836,-3.76555 0.11482,-1.00158 0.41837,-1.81881 0.99852,-2.68645 0.20558,-0.30739 0.42809,-0.59763 0.49456,-0.64442 0.15252,-0.10745 0.84184,-0.32746 1.26829,-0.40465 0.77468,-0.14038 1.26132,-0.1744 3.23533,-0.22298 2.07629,-0.051 2.09267,-0.0517 2.72768,-0.21727 0.81191,-0.21177 1.3183,-0.40952 1.56245,-0.61079 0.34509,-0.28444 0.61659,-0.98395 0.74372,-1.91271 0.12164,-0.88864 0.56775,-1.88544 1.10904,-2.48041 0.548,-0.60225 1.70258,-1.14367 2.95622,-1.38625 0.11756,-0.0227 0.19648,-0.036 0.27918,-0.0337 z m 54.29663,2.19378 c 0.051,-7.9e-4 0.107,0 0.17048,0 0.51861,8e-5 0.56462,0.009 0.88989,0.18551 0.18865,0.10214 0.50835,0.32339 0.71002,0.49268 0.34792,0.29212 0.37189,0.3273 0.46462,0.68752 0.63188,2.45556 1.14211,3.68764 1.93332,4.66288 1.16649,1.43784 2.79611,2.12723 5.25486,2.22184 0.98528,0.0376 1.46637,-0.0329 2.35672,-0.34282 0.87086,-0.30317 1.53047,-0.66393 2.28368,-1.25145 1.01647,-0.79278 1.35114,-1.10112 1.66732,-1.52867 0.1573,-0.21271 0.6655,-0.74112 1.12777,-1.17464 1.40952,-1.32174 1.5368,-1.44377 1.76849,-1.70101 0.40247,-0.4469 1.21015,-0.79591 1.49308,-0.6445 0.17581,0.0941 0.35482,0.51142 0.57137,1.32826 0.10994,0.4147 0.22581,0.82045 0.25669,0.9011 0.0306,0.0808 0.16279,0.76128 0.29415,1.51182 0.38216,2.18366 0.77671,3.29207 1.69538,4.77716 0.37738,0.61008 0.64864,0.90987 1.40317,1.54559 0.76395,0.64364 1.39943,1.07071 1.87902,1.26265 1.70956,0.68416 3.05654,1.63629 3.72995,2.63771 0.63283,0.94115 0.65728,1.97909 0.0752,3.1586 -0.29297,0.59339 -0.38804,0.69778 -1.03222,1.12588 -0.57169,0.37997 -1.05982,0.6137 -1.77227,0.85054 -0.69646,0.23154 -2.53769,1.06577 -3.46763,1.56989 -0.42034,0.22786 -1.1458,0.61597 -1.61112,0.86364 -2.56427,1.36494 -3.54664,2.09925 -8.18672,6.11663 -1.90637,1.65054 -3.63356,3.11893 -3.83671,3.26346 -0.20323,0.14453 -0.50984,0.32832 -0.68195,0.40654 -0.17205,0.0784 -0.49606,0.2798 -0.72123,0.44957 -0.75164,0.56683 -1.14658,0.81105 -1.5793,0.97791 -0.54096,0.20865 -2.06806,0.58533 -2.67704,0.65947 -0.52411,0.0635 -1.53965,0.0627 -2.09448,0 -1.96938,-0.22886 -3.63575,-1.02666 -5.0057,-2.39606 -0.59801,-0.59771 -1.37128,-1.63213 -1.51369,-2.02331 -0.0368,-0.10044 0.0533,-0.71268 0.34281,-2.31926 0.2461,-1.36618 0.33993,-1.88183 0.38405,-2.39041 l 0.0203,-0.11993 0.008,-0.37463 c 0.008,-0.16146 0.0141,-0.33499 0.0203,-0.55272 0.0416,-1.36799 0.13793,-2.29096 0.30535,-2.90748 0.0595,-0.21796 0.10869,-0.50035 0.10869,-0.62756 0,-0.31766 0.12862,-1.08191 0.26412,-1.57177 0.0188,-0.0667 0.0321,-0.12878 0.0446,-0.21546 l 0.0392,-0.13677 0,-0.42716 c 0.0282,-0.79552 0.0345,-2.55399 0.0486,-6.96897 0.0196,-6.23395 0.0361,-7.44887 0.10859,-8.0519 0.26358,-2.18273 0.76684,-3.28227 1.71794,-3.75051 0.29556,-0.14554 0.38264,-0.17329 0.73996,-0.17799 z"
       id="path3156"
       inkscape:connector-curvature="0" />
    <g
       style="fill:#ffffff;stroke:none"
       transform="matrix(0.00551266,0,0,-0.00551266,2.0818033,618.1443)"
       id="g6">
      <path
         inkscape:connector-curvature="0"
         d="m 19755,20185 c -241,-37 -290,-44 -350,-51 -22,-3 -47,-7 -55,-9 -8,-2 -37,-7 -65,-10 -27,-4 -61,-8 -75,-11 -14,-2 -59,-8 -101,-14 -41,-6 -85,-12 -96,-14 -11,-3 -44,-7 -74,-11 -30,-3 -61,-8 -69,-10 -8,-2 -33,-6 -55,-9 -22,-3 -74,-11 -115,-17 -41,-6 -88,-12 -105,-14 -16,-3 -48,-7 -70,-10 -22,-4 -51,-8 -65,-10 -14,-2 -74,-11 -135,-20 -60,-9 -126,-18 -145,-21 -19,-2 -62,-9 -95,-14 -92,-14 -132,-20 -172,-25 -63,-9 -117,-17 -134,-20 -9,-2 -40,-6 -70,-10 -30,-3 -108,-15 -174,-25 -66,-10 -140,-21 -165,-25 -25,-3 -58,-8 -73,-10 -15,-2 -47,-7 -70,-10 -23,-3 -53,-8 -67,-10 -14,-2 -45,-7 -70,-10 -25,-3 -74,-11 -110,-16 -36,-5 -76,-12 -90,-14 -14,-2 -43,-6 -65,-10 -22,-3 -53,-8 -70,-10 -41,-5 -294,-41 -345,-50 -14,-2 -61,-9 -105,-15 -44,-6 -91,-13 -105,-15 -14,-3 -61,-9 -105,-15 -44,-6 -92,-13 -107,-16 -16,-2 -40,-6 -55,-8 -16,-3 -48,-8 -73,-11 -83,-12 -115,-16 -145,-22 -38,-6 -56,-9 -125,-17 -30,-4 -66,-9 -80,-11 -48,-9 -85,-14 -130,-20 -25,-3 -56,-7 -70,-10 -14,-2 -43,-7 -65,-10 -74,-11 -170,-24 -220,-31 -27,-3 -59,-8 -70,-10 -11,-2 -38,-7 -60,-9 -22,-3 -51,-7 -65,-10 -14,-3 -38,-7 -55,-9 -94,-14 -192,-28 -219,-32 -35,-4 -167,-23 -207,-30 -15,-2 -47,-6 -70,-9 -24,-3 -69,-10 -99,-15 -30,-5 -73,-11 -95,-14 -22,-3 -87,-12 -145,-21 -58,-8 -118,-17 -135,-19 -103,-15 -254,-37 -275,-41 -14,-2 -45,-7 -69,-10 -23,-3 -55,-7 -70,-10 -33,-6 -212,-32 -271,-40 -25,-3 -56,-8 -70,-10 -14,-3 -45,-7 -70,-10 -25,-3 -56,-8 -70,-10 -24,-4 -148,-22 -343,-50 -210,-30 -544,-79 -677,-100 -19,-3 -55,-7 -80,-10 -25,-3 -67,-10 -95,-15 -27,-5 -72,-12 -100,-15 -27,-3 -61,-8 -75,-10 -57,-9 -298,-44 -340,-50 -25,-3 -56,-8 -70,-10 -14,-2 -45,-7 -70,-10 -25,-3 -70,-10 -100,-15 -85,-14 -118,-19 -210,-30 -47,-6 -92,-13 -100,-15 -8,-2 -37,-7 -65,-10 -27,-3 -77,-10 -110,-15 -33,-5 -80,-12 -105,-15 -25,-3 -52,-8 -60,-10 -8,-3 -37,-7 -65,-10 -27,-2 -61,-7 -75,-9 -14,-3 -43,-7 -65,-11 -22,-3 -67,-10 -100,-15 -33,-5 -82,-12 -110,-15 -27,-4 -57,-8 -65,-10 -8,-2 -33,-6 -55,-9 -106,-14 -136,-18 -220,-31 -49,-8 -112,-17 -140,-20 -27,-4 -57,-8 -65,-10 -8,-2 -42,-7 -75,-10 -33,-4 -64,-11 -70,-16 -7,-7 -10,-1362 -10,-4024 l -1,-4015 21,0 c 71,-2 725,2 2210,15 446,3 1035,8 1310,10 938,7 1889,15 2520,20 347,3 896,7 1220,10 325,3 910,7 1300,10 1401,12 1634,14 1928,15 l 297,1 0,4770 c 0,3809 -3,4769 -12,4768 -7,-1 -112,-16 -233,-34 z"
         id="path8"
         style="fill:#ffffff" />
      <path
         inkscape:connector-curvature="0"
         d="m 8189,18496 c -2,-2 -31,-7 -64,-10 -33,-4 -67,-9 -75,-11 -8,-2 -37,-6 -65,-10 -59,-6 -228,-29 -375,-50 -58,-8 -123,-17 -145,-20 -22,-2 -58,-7 -80,-10 -78,-11 -111,-16 -220,-31 -60,-8 -128,-17 -150,-20 -22,-2 -51,-7 -65,-9 -14,-3 -47,-7 -75,-10 -27,-3 -59,-7 -70,-9 -11,-2 -45,-7 -75,-11 -30,-4 -62,-8 -70,-10 -8,-1 -42,-6 -75,-10 -32,-4 -66,-8 -75,-10 -8,-1 -42,-6 -75,-9 -33,-4 -67,-9 -75,-11 -8,-2 -37,-6 -65,-10 -27,-3 -61,-7 -75,-10 -14,-2 -45,-6 -70,-9 -25,-3 -112,-15 -195,-26 -82,-12 -161,-22 -175,-24 -14,-2 -52,-7 -85,-12 -33,-4 -62,-8 -65,-9 -3,0 -36,-5 -75,-9 -38,-5 -79,-10 -90,-12 -11,-2 -40,-6 -65,-9 -25,-3 -56,-7 -70,-10 -14,-2 -47,-6 -75,-10 -27,-3 -57,-8 -65,-10 -8,-2 -40,-6 -71,-10 -31,-3 -66,-7 -77,-10 -12,-2 -47,-6 -78,-10 -32,-3 -60,-8 -63,-9 -3,-2 -35,-7 -71,-10 -36,-4 -92,-11 -125,-16 -33,-5 -79,-12 -102,-15 -24,-3 -61,-7 -84,-10 -23,-3 -53,-7 -68,-9 -14,-3 -80,-12 -146,-21 -66,-9 -131,-18 -145,-20 -14,-2 -48,-7 -76,-10 -28,-3 -59,-7 -70,-9 -24,-5 -121,-18 -154,-21 -27,-3 -179,-24 -220,-30 -14,-2 -47,-7 -75,-10 -27,-3 -61,-8 -75,-10 -14,-3 -47,-7 -75,-10 -27,-3 -61,-8 -75,-10 -37,-7 -79,-13 -135,-20 -27,-3 -77,-10 -110,-15 -33,-5 -87,-12 -120,-15 -33,-4 -62,-8 -65,-10 -3,-2 -30,-6 -60,-9 -30,-4 -68,-8 -85,-10 -63,-8 -121,-17 -160,-23 -22,-3 -51,-7 -65,-8 -14,-2 -43,-5 -65,-8 -22,-4 -60,-9 -85,-12 -25,-3 -56,-8 -70,-10 -14,-2 -79,-11 -145,-20 -66,-9 -131,-18 -145,-20 -14,-2 -49,-7 -79,-10 -30,-4 -62,-8 -71,-10 -9,-2 -41,-6 -71,-10 -30,-3 -97,-13 -149,-20 -52,-8 -117,-17 -145,-20 -65,-8 -106,-13 -180,-25 -33,-5 -85,-12 -115,-15 -30,-3 -66,-7 -80,-10 -14,-2 -45,-7 -70,-10 -43,-5 -167,-22 -220,-30 -14,-2 -45,-6 -70,-10 -25,-3 -58,-8 -75,-10 -16,-2 -48,-6 -70,-9 -65,-9 -126,-17 -143,-20 -10,-2 -43,-7 -76,-11 -32,-3 -68,-8 -80,-10 -11,-2 -59,-9 -106,-15 -104,-13 -160,-21 -180,-25 -8,-2 -23,-4 -32,-4 -16,-1 -17,-204 -14,-3416 2,-1879 6,-3418 9,-3422 6,-5 479,-5 1612,2 899,6 3034,18 5285,30 685,4 1256,8 1270,9 l 25,1 0,3953 c 0,2175 -3,3956 -6,3958 -3,2 -8,2 -10,0 z"
         id="path10"
         style="fill:#ffffff" />
      <path
         inkscape:connector-curvature="0"
         d="M 9,9715 C 8,9710 7,8169 7,6293 l -2,-3413 25,-5 c 14,-2 79,-12 145,-21 149,-20 148,-20 215,-28 30,-4 62,-9 70,-11 8,-2 44,-7 80,-10 36,-4 74,-9 85,-11 24,-5 77,-12 130,-19 61,-7 189,-25 211,-29 10,-2 46,-7 79,-11 32,-4 68,-9 80,-11 11,-2 41,-6 66,-8 26,-3 57,-7 70,-10 13,-3 47,-8 74,-11 28,-3 64,-8 80,-10 17,-3 48,-7 70,-10 22,-3 69,-10 105,-15 36,-5 85,-12 110,-15 57,-7 118,-15 151,-21 15,-2 47,-6 70,-9 24,-3 107,-15 184,-26 77,-10 157,-21 178,-24 20,-3 56,-7 80,-11 23,-3 69,-9 102,-14 33,-5 101,-14 150,-21 50,-6 99,-13 110,-14 11,-2 74,-11 140,-20 66,-9 134,-18 150,-20 17,-3 50,-7 75,-10 25,-3 56,-7 70,-10 14,-2 45,-7 70,-10 25,-4 56,-8 70,-10 14,-2 45,-6 70,-10 25,-3 62,-8 83,-11 46,-7 66,-10 142,-19 33,-3 71,-8 85,-11 14,-2 36,-6 50,-8 28,-5 95,-14 155,-21 64,-8 263,-36 282,-39 10,-2 47,-7 83,-11 36,-4 74,-9 85,-11 18,-4 201,-29 285,-40 19,-2 51,-7 70,-9 82,-13 174,-25 218,-30 26,-3 58,-8 72,-10 14,-3 41,-7 60,-9 74,-10 132,-18 148,-21 10,-1 42,-6 73,-9 31,-4 66,-8 77,-11 11,-2 75,-11 144,-19 68,-9 135,-18 148,-21 13,-2 46,-7 74,-10 28,-3 62,-7 76,-10 14,-2 45,-7 70,-10 25,-4 56,-8 70,-10 14,-2 63,-9 110,-15 47,-6 96,-13 110,-15 14,-2 63,-9 110,-15 47,-6 97,-13 111,-15 14,-3 43,-7 64,-10 34,-4 81,-10 145,-20 14,-2 50,-7 80,-10 30,-4 63,-9 74,-11 10,-2 44,-6 75,-10 31,-3 63,-8 72,-9 9,-2 40,-6 70,-10 30,-3 95,-12 145,-20 49,-8 115,-17 145,-20 30,-3 63,-8 74,-10 11,-2 49,-7 85,-11 36,-3 68,-8 71,-10 3,-1 31,-6 63,-9 31,-4 65,-8 76,-10 10,-2 40,-6 67,-10 26,-4 58,-8 69,-10 12,-2 48,-7 80,-10 33,-4 68,-9 79,-11 11,-2 45,-7 75,-10 30,-3 57,-7 60,-9 4,-3 85,-12 156,-18 19,-2 19,67 17,3952 -2,2175 -5,3956 -7,3958 -2,3 -289,6 -638,8 -348,2 -1000,7 -1448,10 -754,5 -1551,10 -3110,20 -338,2 -1099,7 -1690,11 -591,3 -1126,7 -1187,8 -69,1 -113,-3 -114,-9 z"
         id="path12"
         style="fill:#ffffff" />
      <path
         inkscape:connector-curvature="0"
         d="m 9186,6265 c 8,-4661 8,-4622 17,-4632 5,-4 12,-8 15,-9 4,0 34,-4 67,-8 33,-5 69,-10 80,-11 11,-2 39,-6 61,-9 23,-4 59,-9 80,-11 22,-3 102,-14 179,-26 77,-11 158,-22 180,-24 22,-3 51,-7 65,-10 14,-3 41,-7 60,-9 66,-9 265,-36 330,-46 36,-5 83,-12 105,-15 22,-3 72,-10 110,-16 39,-5 88,-12 110,-14 22,-3 51,-7 65,-9 14,-3 45,-8 70,-11 25,-4 56,-8 70,-10 14,-2 45,-7 70,-10 25,-3 56,-7 70,-10 24,-4 38,-6 145,-20 28,-4 61,-9 75,-11 14,-2 93,-13 175,-24 141,-20 166,-23 240,-35 17,-3 48,-8 70,-10 92,-12 121,-15 140,-19 12,-2 48,-7 80,-11 33,-4 69,-9 80,-11 11,-2 45,-7 75,-10 30,-3 57,-7 60,-9 3,-2 30,-6 60,-10 30,-3 66,-8 80,-10 14,-2 45,-7 70,-10 25,-3 90,-13 145,-21 55,-8 123,-17 150,-20 28,-3 52,-7 55,-9 3,-2 37,-7 75,-10 39,-4 72,-8 75,-10 3,-2 30,-6 60,-10 30,-3 82,-10 115,-15 33,-5 80,-12 105,-15 25,-3 56,-7 70,-10 14,-3 45,-7 70,-10 25,-3 56,-7 70,-10 23,-4 69,-11 137,-19 15,-2 46,-7 68,-10 22,-3 103,-15 180,-26 77,-11 160,-22 185,-25 25,-3 56,-7 70,-10 14,-2 45,-7 70,-10 25,-3 56,-8 70,-10 14,-2 45,-7 70,-10 25,-4 56,-8 70,-10 46,-7 184,-26 220,-31 19,-3 46,-7 60,-9 14,-3 48,-7 75,-10 28,-3 57,-8 65,-10 8,-2 40,-7 70,-10 52,-6 68,-8 138,-19 15,-3 65,-10 112,-16 47,-6 96,-13 110,-15 14,-2 43,-6 65,-9 73,-10 469,-66 505,-71 19,-3 100,-15 180,-26 80,-11 156,-22 170,-24 14,-2 45,-6 70,-10 25,-4 56,-8 70,-10 14,-2 48,-7 75,-10 28,-3 57,-7 65,-10 8,-2 42,-6 75,-10 33,-3 69,-8 80,-10 11,-3 38,-7 60,-10 68,-10 259,-37 280,-40 11,-1 47,-6 80,-10 33,-4 69,-9 80,-11 11,-3 40,-7 65,-9 25,-3 56,-8 70,-10 14,-3 43,-7 65,-10 22,-3 54,-7 70,-10 17,-3 50,-7 75,-10 25,-3 56,-7 70,-10 14,-3 43,-7 65,-10 22,-2 119,-16 215,-30 96,-14 193,-28 215,-30 22,-3 58,-8 80,-11 22,-4 49,-8 60,-9 11,-2 58,-8 105,-15 47,-6 101,-13 120,-16 19,-3 46,-7 60,-9 14,-3 45,-7 70,-10 25,-3 56,-7 70,-10 14,-3 43,-7 65,-10 22,-2 58,-7 80,-11 66,-9 86,-12 175,-24 47,-6 96,-13 110,-15 14,-2 61,-9 105,-15 44,-6 91,-13 105,-15 14,-2 48,-7 75,-10 28,-3 61,-8 75,-11 14,-2 43,-7 65,-9 22,-3 51,-7 65,-10 14,-3 45,-7 70,-10 25,-3 106,-14 180,-25 74,-11 159,-23 189,-26 30,-3 58,-7 61,-9 4,-3 36,-7 70,-10 35,-4 67,-8 72,-11 4,-3 8,2132 8,4744 l 0,4749 -1242,2 c -1208,2 -6583,11 -8586,14 l -992,2 6,-3350 z"
         id="path14"
         style="fill:#ffffff" />
    </g>
  </g>
</svg>
